<?xml version="1.0" standalone="no"?>
<!DOCTYPE svg PUBLIC "-//W3C//DTD SVG 20010904//EN"
 "http://www.w3.org/TR/2001/REC-SVG-20010904/DTD/svg10.dtd">
<svg version="1.0" xmlns="http://www.w3.org/2000/svg"
 width="3834.000000pt" height="3744.000000pt" viewBox="0 0 3834.000000 3744.000000"
 preserveAspectRatio="xMidYMid meet">

<g transform="translate(0.000000,3744.000000) scale(0.100000,-0.100000)"
fill="#000000" stroke="none">
<path d="M22500 21150 c0 -5 14 -10 30 -10 17 0 30 5 30 10 0 6 -13 10 -30 10
-16 0 -30 -4 -30 -10z"/>
<path d="M22590 21150 c0 -5 12 -10 28 -10 21 0 24 2 12 10 -20 13 -40 13 -40
0z"/>
<path d="M22662 21148 c5 -15 58 -24 58 -10 0 5 -10 12 -22 16 -34 9 -40 7
-36 -6z"/>
<path d="M22417 21139 c8 -8 19 -8 40 -1 28 10 28 10 -11 11 -29 1 -37 -2 -29
-10z"/>
<path d="M22745 21140 c3 -5 17 -10 31 -10 13 0 24 5 24 10 0 6 -14 10 -31 10
-17 0 -28 -4 -24 -10z"/>
<path d="M22836 21133 c16 -3 20 -10 16 -29 -4 -23 -8 -25 -38 -19 -21 4 -34
2 -34 -5 0 -6 -7 -6 -20 2 -15 10 -23 10 -28 2 -6 -9 -136 -20 -177 -15 -5 1
-41 6 -80 11 -38 6 -83 12 -100 13 -16 1 -34 5 -40 8 -5 3 -28 7 -50 8 -22 2
-43 7 -46 13 -4 7 -14 6 -28 -2 -12 -6 -35 -9 -51 -5 -16 3 -31 2 -35 -4 -3
-6 -21 -11 -39 -11 -18 0 -55 -6 -82 -14 -27 -8 -67 -17 -89 -20 -57 -9 -137
-27 -155 -36 -9 -4 -30 -11 -47 -14 -17 -4 -44 -19 -61 -34 -17 -15 -41 -35
-53 -44 -20 -15 -20 -18 -5 -24 9 -3 25 -4 36 -1 24 6 38 -12 19 -25 -15 -10
3 -9 146 12 120 18 391 37 555 39 317 4 686 -50 960 -140 69 -23 133 -46 144
-51 14 -8 17 -7 14 4 -2 7 -18 20 -34 28 -28 14 -28 15 -6 18 13 2 38 -2 55
-9 21 -9 32 -10 34 -2 5 15 56 2 71 -18 12 -18 15 -18 38 -3 24 17 38 13 40
-9 0 -7 2 -20 2 -29 3 -26 29 -22 59 8 20 20 28 23 34 13 6 -10 10 -9 15 6 14
37 44 47 44 15 0 -11 5 -20 10 -20 6 0 10 5 10 12 0 9 3 9 12 0 16 -16 58 -15
80 2 16 12 15 14 -12 34 -16 12 -39 22 -50 22 -12 0 -29 9 -38 20 -10 12 -30
22 -47 24 -16 2 -31 8 -33 14 -2 6 -19 14 -37 18 -19 3 -39 12 -46 20 -6 8
-17 14 -23 14 -6 0 -27 8 -46 19 -19 10 -53 21 -75 25 -22 4 -53 15 -70 25
-29 16 -68 29 -200 67 -76 22 -71 21 -190 39 -101 15 -131 13 -120 -5 12 -20
-15 -10 -39 15 -18 17 -35 25 -58 24 -21 -1 -25 -3 -12 -6z m864 -307 c0 -2
-7 -9 -15 -16 -13 -11 -14 -10 -9 4 5 14 24 23 24 12z"/>
<path d="M22278 21123 c7 -3 16 -2 19 1 4 3 -2 6 -13 5 -11 0 -14 -3 -6 -6z"/>
<path d="M21558 20863 c7 -3 16 -2 19 1 4 3 -2 6 -13 5 -11 0 -14 -3 -6 -6z"/>
<path d="M23712 20708 c-17 -17 -15 -28 7 -28 35 0 34 -20 -1 -21 -24 -1 -27
-3 -10 -6 12 -2 20 -9 17 -14 -4 -5 3 -9 14 -9 12 0 21 -3 21 -8 0 -4 17 -16
38 -27 20 -10 49 -27 64 -37 14 -10 31 -18 38 -18 6 0 24 -11 38 -25 23 -21
247 -165 258 -165 2 0 14 -9 26 -21 13 -11 97 -75 188 -142 91 -67 167 -125
168 -129 2 -5 8 -8 13 -8 5 0 17 -7 27 -16 47 -43 158 -124 169 -124 7 0 13
-4 13 -10 0 -5 10 -10 21 -10 22 0 119 -67 119 -82 0 -4 5 -8 10 -8 6 0 18 -8
28 -17 38 -36 63 -53 76 -53 15 0 86 -29 72 -30 -25 -1 35 -43 103 -72 69 -30
85 -32 176 -32 195 1 381 90 475 229 27 40 43 75 35 75 -13 0 -95 -45 -95 -52
0 -4 -8 -8 -18 -8 -10 0 -23 -5 -29 -11 -6 -6 -37 -14 -69 -19 -49 -6 -65 -5
-94 10 -19 10 -46 21 -60 23 -26 5 -181 68 -190 77 -3 3 -32 16 -65 29 -33 13
-79 34 -102 47 -23 13 -49 24 -57 24 -9 0 -16 4 -16 9 0 5 -17 16 -37 25 -21
9 -58 32 -83 50 -29 22 -52 33 -64 29 -14 -4 -17 -1 -13 9 8 23 -110 117 -127
101 -3 -3 -6 -1 -6 5 0 10 -170 134 -222 161 -15 8 -44 29 -64 48 -20 18 -40
33 -44 33 -4 0 -15 10 -26 21 -37 42 -153 107 -284 161 -14 6 -33 14 -42 19
-30 15 -63 10 -76 -12 -7 -11 -19 -18 -27 -15 -8 3 -17 1 -20 -4 -4 -6 -18 -7
-31 -4 -14 4 -36 1 -50 -6 -18 -10 -29 -11 -46 -2 -13 6 -36 13 -52 14 -19 2
-30 9 -32 21 -3 22 -3 23 -29 31 -12 3 -26 1 -33 -6z m62 -64 c3 -8 2 -12 -4
-9 -6 3 -10 10 -10 16 0 14 7 11 14 -7z m1026 -564 c0 -5 -2 -10 -4 -10 -3 0
-8 5 -11 10 -3 6 -1 10 4 10 6 0 11 -4 11 -10z m56 -5 c-15 -8 -33 -12 -39 -8
-12 7 17 21 48 22 16 1 14 -2 -9 -14z m81 0 c8 -21 -1 -28 -27 -20 -17 5 -19
10 -9 21 15 18 28 18 36 -1z m-177 -35 c0 -5 -4 -10 -10 -10 -5 0 -10 5 -10
10 0 6 5 10 10 10 6 0 10 -4 10 -10z m-60 -10 c0 -5 -12 -10 -26 -10 -14 0
-23 4 -19 10 3 6 15 10 26 10 10 0 19 -4 19 -10z"/>
<path d="M20964 20685 c-10 -8 -14 -15 -7 -15 19 0 43 11 43 21 0 13 -14 11
-36 -6z"/>
<path d="M20908 20653 c6 -2 18 -2 25 0 6 3 1 5 -13 5 -14 0 -19 -2 -12 -5z"/>
<path d="M20870 20640 c-9 -6 -10 -10 -3 -10 6 0 15 5 18 10 8 12 4 12 -15 0z"/>
</g>
</svg>
