<?xml version="1.0" standalone="no"?>
<!DOCTYPE svg PUBLIC "-//W3C//DTD SVG 20010904//EN"
 "http://www.w3.org/TR/2001/REC-SVG-20010904/DTD/svg10.dtd">
<svg version="1.0" xmlns="http://www.w3.org/2000/svg"
 width="3834.000000pt" height="3744.000000pt" viewBox="0 0 3834.000000 3744.000000"
 preserveAspectRatio="xMidYMid meet">

<g transform="translate(0.000000,3744.000000) scale(0.100000,-0.100000)"
fill="#000000" stroke="none">
<path d="M0 18720 l0 -18720 19170 0 19170 0 0 18720 0 18720 -19170 0 -19170
0 0 -18720z m18430 5541 c267 -66 311 -98 376 -272 40 -107 55 -257 34 -336
-26 -99 -49 -169 -69 -207 -12 -22 -23 -54 -27 -71 -7 -40 -82 -135 -237 -300
-138 -147 -193 -202 -257 -261 -25 -23 -83 -83 -130 -133 -47 -51 -97 -105
-111 -119 -14 -15 -72 -76 -129 -137 -56 -60 -130 -139 -165 -175 -34 -36 -77
-85 -94 -109 -17 -25 -55 -70 -84 -102 -109 -120 -301 -349 -316 -377 -7 -13
-42 -59 -77 -104 -36 -44 -80 -101 -98 -127 -151 -213 -206 -295 -235 -351
-19 -36 -49 -87 -66 -115 -30 -46 -166 -271 -205 -340 -10 -16 -47 -82 -84
-144 -36 -63 -66 -119 -66 -125 0 -5 -7 -17 -15 -26 -14 -15 -49 -81 -196
-370 -15 -30 -46 -100 -67 -155 -22 -55 -53 -134 -70 -175 -119 -302 -159
-406 -183 -485 -28 -92 -92 -273 -124 -355 -58 -149 -110 -356 -149 -595 -15
-88 -35 -212 -45 -275 -27 -159 -36 -248 -86 -810 -16 -175 -13 -886 4 -1025
6 -44 15 -161 21 -260 6 -99 13 -187 15 -195 3 -8 9 -55 15 -105 24 -226 32
-285 46 -355 9 -41 17 -88 19 -105 3 -16 16 -73 30 -125 14 -52 33 -122 41
-155 27 -108 46 -179 65 -235 10 -30 30 -109 44 -175 29 -129 59 -238 107
-380 17 -49 57 -167 88 -260 32 -94 67 -188 79 -208 12 -21 31 -63 42 -95 12
-31 32 -86 46 -122 13 -36 37 -101 53 -145 31 -88 74 -183 118 -260 16 -27 80
-149 142 -270 62 -121 122 -233 134 -250 25 -36 41 -62 58 -95 7 -14 38 -63
69 -110 31 -47 66 -103 77 -125 11 -22 37 -58 56 -79 20 -22 55 -69 78 -105
69 -110 243 -357 291 -413 12 -14 33 -43 47 -63 14 -20 50 -69 80 -108 30 -40
68 -92 84 -117 16 -25 63 -85 105 -133 42 -49 86 -102 97 -119 12 -16 47 -55
77 -86 138 -142 838 -828 1042 -1022 227 -215 264 -259 345 -405 69 -125 84
-215 56 -323 -19 -72 -106 -171 -180 -206 -138 -65 -327 -46 -571 59 -55 24
-111 46 -125 50 -13 4 -54 23 -91 41 -37 19 -73 34 -79 34 -6 0 -46 16 -88 36
-42 20 -106 49 -142 66 -80 37 -281 148 -297 164 -7 7 -34 20 -60 30 -27 10
-66 30 -87 46 -22 15 -43 28 -47 28 -30 0 -585 362 -703 459 -38 31 -103 82
-145 114 -42 32 -104 80 -138 108 -34 27 -84 66 -110 86 -26 20 -88 73 -138
117 -83 75 -121 109 -295 271 -36 33 -82 74 -102 92 -37 31 -143 150 -228 253
-25 30 -58 66 -74 80 -16 13 -72 76 -125 140 -52 63 -129 153 -171 200 -84 94
-217 270 -317 418 -36 53 -69 99 -72 102 -4 3 -18 21 -31 40 -13 19 -30 41
-37 48 -8 8 -21 28 -30 45 -9 18 -19 34 -22 37 -5 4 -22 33 -64 111 -16 30
-39 68 -90 144 -82 123 -224 372 -349 615 -61 118 -137 262 -166 315 -27 51
-76 159 -113 253 -16 41 -39 92 -50 114 -11 22 -36 85 -56 141 -19 56 -43 117
-53 137 -17 33 -73 203 -107 320 -8 30 -21 71 -29 90 -12 33 -24 76 -73 260
-11 41 -34 120 -51 175 -36 114 -125 460 -134 520 -28 197 -49 320 -62 372 -8
34 -26 144 -39 245 -14 101 -30 208 -35 238 -30 174 -47 916 -27 1180 16 210
39 406 61 515 13 64 28 152 41 240 15 96 34 192 75 375 10 47 24 115 30 152 5
36 18 83 26 105 9 21 29 97 45 168 37 172 167 566 286 870 62 157 159 379 180
411 7 11 26 59 42 105 15 46 39 102 51 124 56 99 79 143 96 185 10 25 35 74
56 108 21 35 47 83 57 108 36 80 181 323 326 543 33 50 87 133 121 184 33 52
68 102 78 113 29 33 139 186 186 259 63 99 162 229 295 390 211 254 807 862
905 924 33 21 198 160 280 237 80 74 169 142 235 180 28 15 65 40 83 56 18 15
36 28 41 28 4 0 20 11 35 25 28 26 111 85 120 85 6 0 124 73 236 145 36 23 87
55 114 71 26 16 56 34 65 39 79 51 341 172 410 191 30 8 60 19 67 25 7 6 61
21 121 34 97 22 126 24 283 20 133 -3 195 -9 260 -24z m4590 -485 c74 -9 151
-18 170 -20 136 -17 217 -31 300 -53 52 -13 163 -39 245 -58 169 -37 335 -82
442 -120 40 -14 79 -25 86 -25 21 0 225 -84 322 -133 50 -24 101 -48 115 -52
14 -4 71 -29 128 -56 57 -27 106 -49 108 -49 7 0 181 -86 219 -108 130 -76
293 -174 360 -217 44 -28 102 -64 129 -79 28 -16 68 -46 90 -66 23 -21 59 -50
81 -64 49 -33 186 -150 270 -231 34 -33 70 -67 81 -75 107 -86 212 -194 269
-276 36 -52 65 -97 65 -100 0 -3 13 -23 29 -43 37 -47 88 -148 118 -236 33
-94 41 -228 20 -315 -9 -36 -21 -94 -27 -130 -29 -164 -105 -409 -165 -530
-18 -36 -36 -76 -40 -90 -4 -14 -13 -32 -20 -40 -7 -8 -22 -40 -33 -70 -69
-184 -271 -494 -371 -570 -59 -44 -201 -130 -216 -130 -6 0 -16 -5 -22 -11 -6
-6 -37 -14 -69 -19 -50 -7 -64 -5 -92 11 -18 10 -46 19 -62 19 -16 0 -31 4
-34 9 -4 5 -39 22 -79 37 -39 16 -74 31 -77 34 -3 3 -39 19 -80 35 -41 16 -82
34 -90 39 -8 6 -37 22 -65 36 -58 28 -158 92 -163 102 -2 5 -15 5 -28 2 -19
-5 -23 -3 -18 9 7 18 -44 68 -93 92 -18 9 -33 20 -33 26 0 5 -8 13 -17 16 -10
4 -51 29 -91 57 -70 49 -99 68 -169 111 -18 11 -33 26 -33 33 0 6 -6 12 -13
12 -8 0 -22 10 -33 21 -40 44 -205 136 -317 175 -51 18 -49 18 -82 -10 -22
-19 -36 -23 -69 -20 -23 2 -51 -1 -63 -8 -17 -8 -29 -8 -45 -1 -30 14 -69 15
-85 1 -10 -8 -13 -6 -13 6 0 10 5 14 10 11 6 -3 10 3 10 15 0 12 -4 18 -10 15
-5 -3 -10 -1 -10 4 0 6 -7 11 -16 11 -10 0 -14 7 -12 23 2 17 9 22 28 20 14
-1 19 1 13 3 -7 3 -13 11 -13 17 0 5 3 7 6 4 4 -3 15 -2 25 3 14 8 21 5 33
-12 15 -21 16 -21 16 -3 1 18 1 19 11 3 11 -19 69 -25 69 -8 0 6 3 9 8 9 24
-4 24 4 -2 26 -17 14 -42 25 -58 25 -21 0 -31 6 -35 20 -4 15 -14 20 -39 20
-22 0 -37 6 -40 15 -4 8 -11 15 -17 15 -10 0 -66 24 -137 60 -8 4 -42 15 -75
24 -33 10 -70 24 -82 31 -11 8 -54 23 -95 34 -40 11 -95 27 -122 35 -26 9 -52
13 -57 10 -5 -3 -9 -1 -9 4 0 5 -39 12 -87 15 -49 4 -98 10 -110 13 -17 5 -23
2 -23 -10 0 -9 -7 -16 -16 -16 -8 0 -13 4 -9 9 8 14 -37 43 -49 31 -6 -6 -15
-10 -21 -10 -5 0 -3 4 5 10 19 12 6 25 -16 16 -15 -6 -15 -9 6 -31 13 -14 22
-25 19 -26 -10 -2 -285 -20 -309 -20 -41 1 -191 23 -233 35 -26 8 -57 11 -69
8 -14 -3 -19 -1 -14 6 8 14 4 15 -18 6 -9 -3 -13 -10 -10 -15 5 -9 -17 -7 -63
7 -13 3 -23 2 -23 -4 0 -5 -21 -12 -47 -15 -27 -3 -59 -8 -73 -12 -14 -4 -50
-11 -80 -17 -61 -10 -86 -16 -177 -44 -35 -11 -63 -23 -63 -27 0 -5 -4 -5 -10
-2 -5 3 -15 -3 -22 -15 -7 -11 -18 -20 -24 -20 -12 0 -24 -22 -24 -42 0 -5 12
-8 27 -6 15 2 28 -2 30 -9 3 -9 -6 -13 -26 -13 -16 0 -32 -4 -35 -9 -5 -7 -30
-15 -74 -22 -4 0 -16 -6 -27 -12 -36 -20 -119 -46 -147 -47 -16 0 -28 -4 -28
-9 0 -5 -15 -12 -32 -16 -18 -4 -52 -18 -76 -32 -23 -13 -72 -30 -108 -38 -36
-7 -68 -16 -71 -19 -3 -3 -14 -1 -24 4 -19 11 -67 -9 -181 -72 -13 -7 -30 -18
-38 -24 -8 -7 -37 -24 -65 -39 -83 -44 -135 -79 -229 -155 -82 -65 -233 -170
-247 -170 -5 0 -9 -4 -9 -8 0 -5 -11 -14 -24 -20 -54 -24 -403 -351 -526 -493
-130 -149 -142 -163 -183 -219 -23 -30 -53 -68 -68 -85 -15 -16 -75 -100 -135
-185 -59 -85 -119 -167 -133 -181 -14 -14 -39 -52 -55 -83 -16 -31 -33 -56
-38 -56 -4 0 -8 -5 -8 -11 0 -6 -11 -25 -24 -42 -13 -18 -45 -72 -71 -122 -75
-146 -150 -289 -163 -310 -24 -43 -80 -174 -107 -250 -15 -44 -38 -104 -51
-134 -13 -29 -24 -58 -24 -62 0 -5 -20 -51 -44 -102 -24 -50 -53 -117 -65
-147 -25 -67 -88 -334 -106 -450 -8 -47 -23 -137 -34 -200 -50 -290 -63 -452
-58 -695 4 -194 8 -251 30 -360 14 -71 28 -155 32 -185 29 -247 76 -457 131
-577 8 -17 14 -35 14 -40 0 -11 86 -223 94 -230 3 -4 6 -12 6 -19 0 -31 313
-646 374 -734 17 -25 38 -57 46 -72 8 -15 60 -78 115 -139 55 -62 146 -172
202 -246 109 -143 229 -263 354 -353 18 -14 48 -39 64 -56 17 -18 57 -48 90
-69 33 -21 65 -43 70 -49 6 -6 30 -27 55 -47 25 -20 59 -49 75 -64 51 -45 107
-81 205 -131 52 -26 135 -72 184 -101 49 -29 90 -53 92 -53 5 0 168 -77 301
-142 135 -66 244 -101 403 -129 58 -10 159 -29 225 -43 66 -13 154 -27 195
-31 41 -4 98 -11 125 -16 74 -12 514 -2 630 16 262 38 306 46 390 69 91 26
138 38 159 42 61 11 85 17 126 31 25 8 59 21 75 28 44 20 200 83 275 112 80
30 170 72 190 89 8 6 83 46 165 89 83 42 165 89 184 103 19 14 98 68 175 121
78 52 143 98 144 103 2 4 12 8 23 8 23 0 136 75 149 99 5 10 51 47 102 84 52
36 107 78 124 92 16 15 61 52 99 83 39 31 106 88 150 128 69 62 145 119 316
238 20 14 68 42 105 62 38 20 76 41 84 48 8 6 60 33 115 60 55 27 121 60 147
73 55 28 212 97 348 153 110 45 290 99 440 130 138 29 434 32 580 7 133 -24
127 -22 213 -51 146 -49 209 -88 328 -204 61 -58 120 -123 130 -144 21 -41 39
-144 39 -229 0 -83 -36 -247 -74 -342 -72 -174 -89 -214 -113 -262 -31 -60
-226 -360 -258 -395 -25 -28 -345 -505 -345 -515 0 -8 -43 -69 -52 -73 -5 -2
-8 -9 -8 -16 0 -7 -15 -27 -34 -45 -19 -18 -63 -69 -98 -114 -65 -82 -123
-152 -244 -292 -39 -44 -76 -90 -85 -102 -47 -68 -698 -733 -718 -733 -5 0
-42 -27 -82 -61 -91 -75 -90 -74 -175 -139 -38 -29 -91 -72 -118 -94 -28 -23
-71 -57 -97 -76 -26 -19 -74 -55 -107 -80 -76 -57 -199 -136 -276 -176 -32
-17 -75 -44 -95 -60 -19 -16 -56 -42 -81 -58 -54 -35 -359 -191 -450 -230 -36
-15 -105 -47 -155 -71 -200 -95 -242 -113 -280 -125 -22 -7 -60 -22 -85 -33
-25 -11 -85 -30 -135 -43 -49 -12 -103 -27 -120 -33 -16 -5 -73 -22 -125 -36
-52 -14 -117 -32 -145 -40 -262 -74 -443 -113 -600 -129 -77 -8 -188 -20 -247
-26 -309 -32 -899 1 -1131 64 -28 7 -97 24 -152 36 -109 24 -199 49 -315 86
-41 13 -108 31 -147 39 -40 8 -81 19 -90 25 -10 5 -72 26 -138 45 -136 41
-214 75 -565 244 -111 53 -130 64 -224 125 -33 21 -66 41 -75 44 -46 20 -593
387 -599 404 -2 4 -9 8 -16 8 -7 0 -21 8 -32 18 -10 10 -41 33 -69 52 -68 47
-74 52 -197 165 -60 55 -137 124 -171 153 -87 74 -406 410 -519 547 -9 11 -41
47 -71 80 -29 33 -77 89 -105 125 -48 60 -118 143 -150 176 -14 15 -135 197
-172 259 -13 22 -26 42 -29 45 -23 20 -76 98 -102 150 -17 34 -48 88 -69 119
-20 31 -46 72 -56 91 -11 19 -34 56 -52 82 -17 26 -32 50 -32 54 0 8 -54 114
-99 194 -17 30 -55 105 -85 165 -30 61 -64 126 -75 145 -30 54 -50 99 -78 175
-14 39 -34 88 -44 110 -23 52 -82 214 -121 335 -17 52 -56 174 -88 270 -31 96
-64 200 -73 230 -8 30 -43 143 -76 250 -33 107 -65 227 -71 265 -7 39 -25 138
-40 220 -16 83 -36 220 -45 305 -8 85 -17 165 -20 177 -9 37 -36 366 -44 523
-13 253 -6 895 13 1115 9 110 21 223 26 250 28 162 41 230 60 315 11 52 25
115 30 140 6 25 15 63 21 85 14 55 24 97 44 185 21 98 26 117 129 450 55 177
123 365 157 431 20 39 89 219 89 232 0 4 13 35 29 70 16 34 43 98 60 142 16
44 44 108 60 143 17 34 31 65 31 68 0 7 73 152 180 359 51 99 134 243 185 320
50 77 110 172 134 210 95 159 200 310 287 415 25 30 52 68 61 85 9 16 57 77
107 135 50 58 125 148 166 200 131 166 616 657 760 769 47 36 114 91 150 122
89 78 182 151 260 203 36 24 106 75 155 114 50 40 102 78 118 84 15 7 27 16
27 20 0 5 4 8 9 8 6 0 29 13 53 29 24 16 97 57 163 92 66 35 135 73 153 85 18
12 78 46 135 75 56 30 111 59 122 66 11 7 31 17 45 23 66 30 118 57 149 79 20
13 52 29 72 36 19 7 98 42 175 78 155 74 343 138 684 237 41 12 95 28 120 36
101 34 459 105 624 125 50 6 138 17 196 24 151 18 636 13 810 -9z m491 -2991
c5 -4 9 -1 9 5 0 7 6 8 19 1 10 -6 21 -7 25 -4 3 3 14 -3 24 -15 17 -19 20
-20 35 -5 23 23 47 9 47 -27 0 -19 5 -30 14 -30 8 0 17 -7 20 -15 3 -9 14 -15
23 -13 10 2 19 -4 20 -12 3 -12 -4 -15 -24 -14 -42 2 -43 3 -43 19 0 18 -11
19 -29 3 -11 -10 -14 -10 -18 0 -3 6 -12 12 -21 12 -9 0 -30 9 -47 20 -16 11
-37 20 -46 20 -8 0 -25 9 -37 20 -12 11 -33 25 -47 30 -42 16 -29 28 21 19 25
-5 50 -11 55 -14z m209 -5 c0 -5 -5 -10 -11 -10 -5 0 -7 5 -4 10 3 6 8 10 11
10 2 0 4 -4 4 -10z m1132 -709 c-10 -10 -21 -14 -26 -10 -6 6 -2 15 9 23 26
19 39 10 17 -13z m91 -17 c-6 -17 -13 -17 -33 -3 -11 7 -12 12 -3 15 7 3 9 13
6 22 -6 15 -4 15 15 -1 11 -11 18 -25 15 -33z m-143 26 c0 -5 -4 -10 -10 -10
-5 0 -10 5 -10 10 0 6 5 10 10 10 6 0 10 -4 10 -10z m-40 -35 c0 -8 -4 -15
-10 -15 -5 0 -10 7 -10 15 0 8 5 15 10 15 6 0 10 -7 10 -15z m-62 -22 c3 -20
1 -21 -22 -10 -32 15 -35 40 -3 35 14 -2 23 -11 25 -25z m226 -186 c3 3 6 -3
6 -15 0 -15 -5 -20 -15 -16 -8 4 -15 12 -15 20 0 8 -6 14 -14 14 -8 0 -16 7
-20 15 -3 8 -13 15 -21 15 -9 0 -13 5 -10 10 4 6 22 -2 44 -19 21 -17 41 -28
45 -24z m179 -121 c4 -10 0 -12 -14 -9 -22 6 -26 23 -5 23 8 0 16 -6 19 -14z"/>
<path d="M22515 21150 c-3 -5 3 -10 14 -10 12 0 21 5 21 10 0 6 -6 10 -14 10
-8 0 -18 -4 -21 -10z"/>
<path d="M22595 21146 c11 -8 26 -11 34 -8 12 4 11 7 -5 13 -34 13 -50 11 -29
-5z"/>
<path d="M22662 21148 c6 -16 33 -22 56 -13 15 6 15 8 -3 15 -31 13 -57 12
-53 -2z"/>
<path d="M22415 21140 c3 -5 12 -7 20 -3 21 7 19 13 -6 13 -11 0 -18 -4 -14
-10z"/>
<path d="M22750 21140 c20 -13 50 -13 50 0 0 6 -15 10 -32 10 -25 0 -29 -3
-18 -10z"/>
</g>
</svg>
