<?xml version="1.0" standalone="no"?>
<!DOCTYPE svg PUBLIC "-//W3C//DTD SVG 20010904//EN"
 "http://www.w3.org/TR/2001/REC-SVG-20010904/DTD/svg10.dtd">
<svg version="1.0" xmlns="http://www.w3.org/2000/svg"
 width="500.000000pt" height="500.000000pt" viewBox="0 0 500.000000 500.000000"
 preserveAspectRatio="xMidYMid meet">

<g transform="translate(0.000000,500.000000) scale(0.100000,-0.100000)"
fill="#000000" stroke="none">
<path d="M2158 3385 c-64 -23 -174 -101 -243 -171 -196 -198 -315 -470 -315
-722 0 -399 240 -786 591 -952 75 -35 123 -39 139 -11 16 31 -1 59 -90 146
-168 165 -264 327 -321 540 -20 77 -24 112 -24 250 1 136 4 172 23 240 50 173
140 326 282 480 50 53 93 107 96 121 19 76 -45 113 -138 79z"/>
<path d="M2605 3315 c-167 -45 -334 -163 -452 -319 -57 -76 -130 -226 -154
-320 -43 -165 -34 -361 25 -537 47 -140 113 -244 217 -343 153 -144 274 -199
449 -200 86 -1 118 4 175 23 185 63 328 176 451 357 99 144 101 198 9 224 -86
24 -182 -12 -326 -122 -134 -101 -239 -135 -367 -117 -216 31 -392 245 -392
477 0 209 139 429 325 513 42 19 68 23 155 24 93 0 111 -3 160 -26 30 -14 85
-49 122 -77 40 -31 78 -52 92 -52 75 0 179 177 155 264 -21 75 -198 194 -344
231 -73 19 -232 19 -300 0z"/>
<path d="M2625 2577 c-20 -16 -28 -35 -32 -69 -5 -42 -3 -50 25 -78 21 -20 40
-30 61 -30 34 0 81 19 81 32 0 15 -28 20 -49 9 -27 -15 -70 5 -78 36 -13 55
40 105 84 77 18 -11 23 -11 34 2 11 14 10 18 -6 30 -30 22 -90 17 -120 -9z"/>
<path d="M2800 2500 c0 -92 2 -100 19 -100 15 0 21 8 23 32 4 46 30 47 51 3
13 -27 23 -35 43 -35 l26 0 -21 36 -21 36 20 25 c25 32 25 44 -1 77 -18 23
-28 26 -80 26 l-59 0 0 -100z m110 35 c0 -22 -4 -25 -35 -25 -31 0 -35 3 -35
25 0 22 4 25 35 25 31 0 35 -3 35 -25z"/>
<path d="M3002 2520 c3 -72 6 -84 27 -101 33 -27 92 -25 119 4 19 20 22 35 22
100 0 70 -2 77 -20 77 -18 0 -20 -7 -20 -69 0 -60 -3 -72 -22 -85 -15 -11 -26
-12 -39 -5 -14 7 -19 24 -21 82 -3 67 -5 72 -27 75 -23 4 -23 3 -19 -78z"/>
<path d="M3220 2500 c0 -93 1 -100 20 -100 18 0 20 7 20 63 1 67 4 67 43 -5
l19 -33 24 30 c13 17 24 35 24 42 0 6 5 15 11 19 9 5 10 -9 5 -55 -7 -61 -7
-61 19 -61 l25 0 0 100 c0 99 0 100 -25 100 -19 0 -28 -9 -43 -44 -11 -24 -24
-46 -29 -49 -6 -4 -22 16 -37 43 -21 39 -33 50 -52 50 -24 0 -24 -1 -24 -100z"/>
<path d="M3480 2500 l0 -100 63 0 c71 0 107 18 107 54 0 13 -7 29 -15 36 -11
9 -13 16 -5 24 16 16 12 51 -8 69 -13 12 -37 17 -80 17 l-62 0 0 -100z m115
40 c0 -10 -12 -16 -32 -18 -28 -3 -33 0 -33 18 0 18 5 21 33 18 20 -2 32 -8
32 -18z m9 -75 c6 -17 -4 -23 -44 -27 -19 -2 -26 2 -28 20 -3 19 1 22 31 22
22 0 37 -6 41 -15z"/>
<path d="M3809 2577 c-71 -54 -36 -177 50 -177 39 0 85 25 75 41 -4 6 -12 5
-22 -4 -16 -14 -41 -21 -69 -18 -24 2 -53 41 -53 70 0 43 9 60 42 77 26 13 32
13 60 -1 35 -17 47 -13 28 10 -15 18 -88 20 -111 2z"/>
<path d="M3999 2561 c-21 -22 -29 -39 -29 -66 0 -51 44 -95 95 -95 71 0 117
79 83 143 -18 34 -40 46 -81 47 -29 0 -45 -7 -68 -29z m121 -11 c21 -21 26
-69 10 -100 -23 -43 -106 -44 -129 -1 -31 58 2 121 64 121 22 0 43 -8 55 -20z"/>
<path d="M4217 2583 c-11 -11 -8 -183 3 -183 6 0 10 16 10 35 0 31 3 35 25 35
16 0 34 -12 52 -35 36 -45 51 -45 23 -1 l-21 35 20 20 c27 27 27 66 -1 85 -22
16 -99 22 -111 9z m107 -35 c18 -29 -4 -53 -53 -56 l-41 -3 0 41 0 41 41 -3
c27 -2 46 -9 53 -20z"/>
<path d="M4410 2495 c0 -57 4 -95 10 -95 6 0 10 16 10 35 0 35 0 35 43 35 70
0 102 55 57 100 -15 15 -33 20 -70 20 l-50 0 0 -95z m114 53 c18 -29 -4 -53
-53 -56 l-41 -3 0 41 0 41 41 -3 c27 -2 46 -9 53 -20z"/>
</g>
</svg>
